<mxfile host="65bd71144e">
    <diagram id="A3qWTJxBf30MFO97emnY" name="Page-1">
        <mxGraphModel dx="1377" dy="1045" grid="1" gridSize="10" guides="1" tooltips="1" connect="1" arrows="1" fold="1" page="1" pageScale="1" pageWidth="850" pageHeight="1100" math="0" shadow="0">
            <root>
                <mxCell id="0"/>
                <mxCell id="1" parent="0"/>
                <mxCell id="2" value="" style="strokeWidth=1;shadow=0;dashed=0;align=center;html=1;shape=mxgraph.mockup.containers.browserWindow;rSize=0;strokeColor=#666666;strokeColor2=#008cff;strokeColor3=#c4c4c4;mainText=,;recursiveResize=0;" parent="1" vertex="1">
                    <mxGeometry x="10" y="10" width="830" height="600" as="geometry"/>
                </mxCell>
                <mxCell id="3" value="aut.dig" style="strokeWidth=1;shadow=0;dashed=0;align=center;html=1;shape=mxgraph.mockup.containers.anchor;fontSize=17;fontColor=#666666;align=left;" parent="2" vertex="1">
                    <mxGeometry x="60" y="12" width="110" height="26" as="geometry"/>
                </mxCell>
                <mxCell id="4" value="https://autorizacao.digital/initation" style="strokeWidth=1;shadow=0;dashed=0;align=center;html=1;shape=mxgraph.mockup.containers.anchor;rSize=0;fontSize=17;fontColor=#666666;align=left;" parent="2" vertex="1">
                    <mxGeometry x="130" y="60" width="250" height="26" as="geometry"/>
                </mxCell>
                <mxCell id="7" value="" style="group" parent="2" vertex="1" connectable="0">
                    <mxGeometry x="150" y="230" width="230" height="60" as="geometry"/>
                </mxCell>
                <mxCell id="8" value="" style="group" parent="7" vertex="1" connectable="0">
                    <mxGeometry width="230" height="60" as="geometry"/>
                </mxCell>
                <mxCell id="9" value="" style="rounded=0;whiteSpace=wrap;html=1;align=left;" parent="8" vertex="1">
                    <mxGeometry y="20" width="230" height="30" as="geometry"/>
                </mxCell>
                <mxCell id="10" value="Name" style="text;html=1;strokeColor=none;fillColor=none;align=left;verticalAlign=middle;whiteSpace=wrap;rounded=0;" parent="8" vertex="1">
                    <mxGeometry width="230" height="20" as="geometry"/>
                </mxCell>
                <mxCell id="13" value="" style="group" parent="2" vertex="1" connectable="0">
                    <mxGeometry x="150" y="310" width="230" height="60" as="geometry"/>
                </mxCell>
                <mxCell id="14" value="" style="group" parent="13" vertex="1" connectable="0">
                    <mxGeometry width="230" height="60" as="geometry"/>
                </mxCell>
                <mxCell id="15" value="" style="rounded=0;whiteSpace=wrap;html=1;align=left;" parent="14" vertex="1">
                    <mxGeometry y="20" width="230" height="30" as="geometry"/>
                </mxCell>
                <mxCell id="16" value="Phone" style="text;html=1;strokeColor=none;fillColor=none;align=left;verticalAlign=middle;whiteSpace=wrap;rounded=0;" parent="14" vertex="1">
                    <mxGeometry width="230" height="20" as="geometry"/>
                </mxCell>
                <mxCell id="17" value="" style="group" parent="2" vertex="1" connectable="0">
                    <mxGeometry x="150" y="390" width="230" height="60" as="geometry"/>
                </mxCell>
                <mxCell id="18" value="" style="group" parent="17" vertex="1" connectable="0">
                    <mxGeometry width="230" height="60" as="geometry"/>
                </mxCell>
                <mxCell id="19" value="" style="rounded=0;whiteSpace=wrap;html=1;align=left;" parent="18" vertex="1">
                    <mxGeometry y="20" width="230" height="30" as="geometry"/>
                </mxCell>
                <mxCell id="20" value="Email" style="text;html=1;strokeColor=none;fillColor=none;align=left;verticalAlign=middle;whiteSpace=wrap;rounded=0;" parent="18" vertex="1">
                    <mxGeometry width="230" height="20" as="geometry"/>
                </mxCell>
                <mxCell id="11" value="&lt;font color=&quot;#ffffff&quot;&gt;SEND INVITATION&lt;/font&gt;" style="rounded=1;whiteSpace=wrap;html=1;align=center;fillColor=#00A653;strokeColor=none;" parent="2" vertex="1">
                    <mxGeometry x="150" y="490" width="230" height="30" as="geometry"/>
                </mxCell>
                <mxCell id="36" value="" style="pointerEvents=1;shadow=0;dashed=0;html=1;strokeColor=#005700;fillColor=#008a00;labelPosition=center;verticalLabelPosition=bottom;verticalAlign=top;outlineConnect=0;align=center;shape=mxgraph.office.communications.messages_queued;fontColor=#ffffff;" parent="2" vertex="1">
                    <mxGeometry x="500" y="240" width="40" height="40" as="geometry"/>
                </mxCell>
                <mxCell id="12" value="&amp;nbsp; Invitation customer" style="text;html=1;strokeColor=none;fillColor=none;align=left;verticalAlign=middle;whiteSpace=wrap;rounded=0;" parent="2" vertex="1">
                    <mxGeometry x="550" y="253" width="150" height="20" as="geometry"/>
                </mxCell>
                <mxCell id="38" value="&amp;nbsp; invitation accepted" style="text;html=1;strokeColor=none;fillColor=none;align=left;verticalAlign=middle;whiteSpace=wrap;rounded=0;" parent="2" vertex="1">
                    <mxGeometry x="550" y="315" width="110" height="20" as="geometry"/>
                </mxCell>
                <mxCell id="39" value="&lt;font color=&quot;#ffffff&quot;&gt;NEXT LEVEL&lt;/font&gt;" style="rounded=1;whiteSpace=wrap;html=1;align=center;fillColor=#0050ef;strokeColor=#001DBC;fontColor=#ffffff;" parent="2" vertex="1">
                    <mxGeometry x="490" y="450" width="230" height="30" as="geometry"/>
                </mxCell>
                <mxCell id="40" value="&lt;font color=&quot;#ffffff&quot;&gt;GO BACK&lt;/font&gt;" style="rounded=1;whiteSpace=wrap;html=1;align=center;fillColor=#0050ef;strokeColor=#001DBC;fontColor=#ffffff;" parent="2" vertex="1">
                    <mxGeometry x="490" y="490" width="230" height="30" as="geometry"/>
                </mxCell>
                <mxCell id="6" value="&lt;b&gt;&lt;font style=&quot;font-size: 15px&quot;&gt;aut.dig&lt;/font&gt;&lt;/b&gt;" style="text;html=1;strokeColor=none;fillColor=none;align=center;verticalAlign=middle;whiteSpace=wrap;rounded=0;" parent="1" vertex="1">
                    <mxGeometry x="445" y="158" width="40" height="20" as="geometry"/>
                </mxCell>
                <mxCell id="37" value="" style="pointerEvents=1;shadow=0;dashed=0;html=1;strokeColor=none;labelPosition=center;verticalLabelPosition=bottom;verticalAlign=top;outlineConnect=0;align=center;shape=mxgraph.office.communications.offline_address_book;fillColor=#FF0000;" parent="1" vertex="1">
                    <mxGeometry x="510" y="311.5" width="40" height="40" as="geometry"/>
                </mxCell>
                <mxCell id="41" value="" style="shape=mxgraph.mockup.markup.scratchOut;shadow=0;dashed=0;html=1;strokeColor=#999999;strokeWidth=2;" parent="1" vertex="1">
                    <mxGeometry x="370" y="153" width="55" height="30" as="geometry"/>
                </mxCell>
            </root>
        </mxGraphModel>
    </diagram>
</mxfile>